# xmcd
#
# Track frame offsets: 
#        150
#        11322
#        21765
#        35247
#        46302
#        58179
#        68617
#        79630
#        90657
#        105198
#        117925
#        133891
#
# Disc length: 1952 seconds
#
# Revision: 0
# Processed by: cddbd v1.5.2PL0 Copyright (c) Steve Scherf et al.
# Submitted via: ExactAudioCopyFreeDBPlugin 1.0
#
DISCID=93079e0c
DTITLE=The Doel Brothers - Travellin' Heavy With
DYEAR=2015
DGENRE=Hillbilly
TTITLE0=Wild Wild Woman
TTITLE1=Troubles
TTITLE2=Liquid Lover
TTITLE3=Who Needs You?
TTITLE4=Does It Feel Good?
TTITLE5=Side Step 'Round the Blues
TTITLE6=You Ain't a Woman
TTITLE7=It Don't Work Out
TTITLE8=Oh Boy
TTITLE9=What Ya Wanna Do That For?
TTITLE10=Huntin' Honey
TTITLE11=Gone But Not Forgotten (Alt. Take)
EXTD=
EXTT0=
EXTT1=
EXTT2=
EXTT3=
EXTT4=
EXTT5=
EXTT6=
EXTT7=
EXTT8=
EXTT9=
EXTT10=
EXTT11=
PLAYORDER=
